Coordinates
version=1
nRows=19
nColumns=24
inDegrees=yes

Units are S.I. units (second, meters, Newtons, ...)
Angles are in degrees.

endheader
time	pelvis_tilt	pelvis_list	pelvis_rotation	pelvis_tx	pelvis_ty	pelvis_tz	hip_flexion_r	hip_adduction_r	hip_rotation_r	knee_angle_r	ankle_angle_r	subtalar_angle_r	mtp_angle_r	hip_flexion_l	hip_adduction_l	hip_rotation_l	knee_angle_l	ankle_angle_l	subtalar_angle_l	mtp_angle_l	lumbar_extension	lumbar_bending	lumbar_rotation
      4.09000000	     -3.87653458	     -7.51279587	    -11.57064415	     -2.54170233	      0.67732755	      0.18748052	    -19.90657759	      8.26693451	     15.96853113	    -15.15421487	     11.57276458	      9.06498314	      0.00000000	     23.17052325	    -10.40035009	     13.12781947	      3.97434720	     -1.32893220	    -25.15329477	      0.00000000	    -14.72151999	      6.72566394	      9.77333983
      4.10000000	     -3.21568778	     -6.10001943	    -11.42354127	     -2.52489010	      0.67740459	      0.18594334	    -19.25490288	      6.58918535	     13.52956519	    -18.99614433	      9.97182318	     10.73330373	      0.00000000	     23.42649124	     -8.07914271	     13.63650877	      0.63827890	     -2.69068182	    -25.91692942	      0.00000000	    -14.84533191	      4.95780875	      9.36074166
      4.11000000	     -2.57209849	     -4.45546189	    -11.30282176	     -2.50817212	      0.67774251	      0.18442259	    -18.15444087	      4.70073456	     11.33607163	    -23.37054790	      7.68493215	     11.63098850	      0.00000000	     23.78432643	     -5.45985613	     13.58574776	     -2.99201344	     -4.01187088	    -26.19091110	      0.00000000	    -14.92847592	      2.92306626	      8.98713361
      4.12000000	     -1.90559972	     -2.65503285	    -11.20811844	     -2.49164533	      0.67828299	      0.18308033	    -16.69407867	      2.69451295	      9.52648436	    -28.17602266	      4.75535825	     11.69007938	      0.00000000	     24.12872203	     -2.70444415	     12.91982266	     -6.66867704	     -4.96494786	    -25.86010987	      0.00000000	    -15.04230485	      0.66837905	      8.59858481
      4.13000000	     -1.67538410	     -1.00704645	    -11.21150365	     -2.47582638	      0.67850000	      0.18194899	    -14.30442609	      0.96231428	      8.14526093	    -33.49849939	      1.28026952	     11.23606714	      0.00000000	     25.04668925	     -0.30702784	     11.24902306	    -10.48496510	     -4.65886284	    -23.98050220	      0.00000000	    -14.79435615	     -1.30217724	      8.40519544
      4.14000000	     -1.34422146	      0.70180216	    -11.31791198	     -2.46025926	      0.67889174	      0.18122095	    -11.76171598	     -0.80022167	      7.33113450	    -38.90656292	     -2.34356985	     10.43572561	      0.00000000	     25.53794565	      1.96792349	      9.65786591	    -13.70601130	     -4.24980404	    -22.60678250	      0.00000000	    -14.65521039	     -3.43137930	      8.31910872
      4.15000000	     -1.35675238	      2.14724000	    -11.50620258	     -2.44526299	      0.67910359	      0.18086664	     -8.63911039	     -2.06849617	      7.16178652	    -44.27399372	     -6.06455835	      9.27205285	      0.00000000	     26.12287338	      3.74031511	      7.99382117	    -16.44103923	     -3.21431282	    -21.18276288	      0.00000000	    -14.19491043	     -5.16731592	      8.27347675
      4.16000000	     -1.43384292	      3.55564210	    -11.64310422	     -2.43050622	      0.67937976	      0.18056486	     -5.34226277	     -3.18442797	      7.26899590	    -49.40568648	     -8.98356472	      8.63819362	      0.00000000	     26.35103612	      5.42973969	      6.82685790	    -18.41764080	     -1.99213779	    -20.31219707	      0.00000000	    -13.65377332	     -6.80101947	      8.04655005
      4.17000000	     -1.22055873	      4.87212216	    -11.98059603	     -2.41595763	      0.68042413	      0.18060675	     -2.31501298	     -4.15147558	      7.86899472	    -54.10263422	    -10.85238081	      8.60919917	      0.00000000	     25.67816662	      7.00767831	      6.06906906	    -19.38197376	     -0.86439086	    -20.20292230	      0.00000000	    -13.44395863	     -8.38875678	      8.00679731
      4.18000000	     -1.18333442	      6.01925684	    -12.19536232	     -2.40151105	      0.68166185	      0.18062000	      0.82601344	     -4.76045372	      8.62861937	    -58.31440440	    -11.26899433	      9.51062899	      0.00000000	     24.74518210	      8.43873288	      5.79067104	    -19.61761836	      0.34454213	    -20.29363319	      0.00000000	    -12.99593890	     -9.66601750	      7.74132997
      4.19000000	     -1.11558088	      6.93055505	    -12.36298170	     -2.38711341	      0.68345431	      0.18067587	      3.79366727	     -5.02966053	      9.44102722	    -61.91411683	    -10.36924128	     10.98096415	      0.00000000	     23.26715466	      9.67757954	      6.03062253	    -19.06010058	      1.36421625	    -20.71487435	      0.00000000	    -12.58311079	    -10.60633432	      7.40117667
      4.20000000	     -1.03151435	      7.62142677	    -12.52708013	     -2.37274352	      0.68570717	      0.18081409	      6.58488848	     -5.00512840	     10.27512159	    -64.88085777	     -8.25952780	     12.84379792	      0.00000000	     21.32162784	     10.70408482	      6.73089720	    -17.81903793	      2.01720984	    -21.52861442	      0.00000000	    -12.18660056	    -11.25886094	      7.03401981
      4.21000000	     -0.91166158	      8.07993017	    -12.68642374	     -2.35826104	      0.68834429	      0.18101285	      9.11474474	     -4.73316456	     11.01006613	    -67.14265171	     -5.20399936	     14.65334115	      0.00000000	     18.89839057	     11.50200464	      8.03595680	    -15.93994095	      1.99829377	    -23.07098941	      0.00000000	    -11.80176377	    -11.61840954	      6.73904986
      4.22000000	     -0.70788516	      8.12964038	    -12.63917653	     -2.34373249	      0.69141751	      0.18111386	     11.22382090	     -4.08915585	     11.39529979	    -68.61998653	     -1.78894480	     16.14049585	      0.00000000	     16.06317204	     11.89590306	      9.86144195	    -13.71918191	      1.58627971	    -24.84358635	      0.00000000	    -11.64813127	    -11.48271507	      6.18962227
      4.23000000	     -0.59574013	      7.85335355	    -12.45719041	     -2.32926466	      0.69449253	      0.18124788	     13.18406252	     -3.14043151	     11.45184166	    -69.42016565	      1.68140353	     16.89238859	      0.00000000	     13.19005025	     11.84677560	     11.83752164	    -11.41049780	      1.04535754	    -26.52288124	      0.00000000	    -11.49432769	    -10.94673430	      5.55549650
      4.24000000	     -0.63633203	      7.31975859	    -12.05411575	     -2.31493854	      0.69736400	      0.18130377	     15.10475354	     -2.00752095	     11.06524052	    -69.60760121	      4.88568638	     16.73208666	      0.00000000	     10.52005737	     11.42453904	     13.73520424	     -9.25458186	      0.56668032	    -27.82754505	      0.00000000	    -11.30399458	    -10.10161940	      4.80806613
      4.25000000	     -0.79085987	      6.60543414	    -11.57888979	     -2.30081668	      0.69991504	      0.18141744	     17.02143678	     -0.75502037	     10.42102094	    -69.27074976	      7.62411019	     15.63215434	      0.00000000	      8.07015391	     10.70406116	     15.45428894	     -7.26705240	      0.18225659	    -28.89888546	      0.00000000	    -11.11285712	     -9.05907602	      4.02288050
      4.26000000	     -0.99050379	      5.76616683	    -10.98874493	     -2.28675992	      0.70211661	      0.18136832	     18.85063701	      0.46383861	      9.48898290	    -68.42958047	      9.90663911	     13.89808550	      0.00000000	      5.78653200	      9.81359142	     17.04053467	     -5.45171373	     -0.23715709	    -30.04140552	      0.00000000	    -10.95971581	     -7.85185015	      3.21059657
      4.27000000	     -1.33151134	      4.95587208	    -10.29018196	     -2.27301933	      0.70374944	      0.18134116	     20.79605012	      1.55683179	      8.32613960	    -67.19805242	     11.53802999	     11.23305464	      0.00000000	      3.92226653	      8.90262006	     18.20551633	     -3.98501882	     -0.19867254	    -30.49226704	      0.00000000	    -10.77306976	     -6.71527564	      2.25723874
